<svg width="681.0124999999999px" height="121.39999999999999px" xmlns="http://www.w3.org/2000/svg" viewBox="-90.50624999999997 14.300000000000004 681.0124999999999 121.39999999999999" style="background: rgba(0, 0, 0, 0);" preserveAspectRatio="xMidYMid"><defs><filter id="editing-metal-beveled"><feGaussianBlur stdDeviation="4" in="SourceAlpha" result="blur"></feGaussianBlur><feSpecularLighting surfaceScale="5" specularConstant="0.8" specularExponent="7.5" lighting-color="#ffffff" in="blur" result="specular"><fePointLight x="-250" y="-50" z="300"></fePointLight></feSpecularLighting><feComposite operator="in" in="specular" in2="SourceAlpha" result="comp"></feComposite><feComposite in="SourceGraphic" in2="comp" operator="arithmetic" k1="0" k2="1" k3="1" k4="0"></feComposite></filter></defs><g filter="url(#editing-metal-beveled)"><g transform="translate(7.60822069644928, 97.14499855041504)"><path d="M6.53 0L-0.83 0L10.75-42.24L24.13-42.24L27.07-18.11L38.98-42.24L50.18-42.24L51.33-10.62L51.33-10.62Q51.58-4.35 54.66-2.43L54.66-2.43L54.66-2.43Q53.95-1.15 51.90 0.06L51.90 0.06L51.90 0.06Q49.86 1.28 47.14 1.28L47.14 1.28L47.14 1.28Q44.42 1.28 42.82 0.51L42.82 0.51L42.82 0.51Q41.22-0.26 40.32-1.54L40.32-1.54L40.32-1.54Q38.72-3.84 38.72-8.26L38.72-8.26L38.72-28.03L26.11 0L18.18 0L13.70-28.74L6.53 0ZM98.94-26.56L98.94-26.56L98.94-26.56Q98.94 0.70 69.38 0.70L69.38 0.70L69.38 0.70Q64.64 0.70 56.83-0.45L56.83-0.45L64-38.27L64-38.27Q64.51-40.83 64.83-42.30L64.83-42.30L64.83-42.30Q74.56-43.01 78.88-43.01L78.88-43.01L78.88-43.01Q83.20-43.01 87.17-42.11L87.17-42.11L87.17-42.11Q91.14-41.22 93.76-39.23L93.76-39.23L93.76-39.23Q98.94-35.33 98.94-26.56ZM85.76-28.93L85.76-28.93L85.76-28.93Q85.76-38.46 78.91-38.46L78.91-38.46L78.27-38.46L78.27-38.46Q77.95-38.46 77.63-38.40L77.63-38.40L71.04-4.03L71.04-4.03Q71.30-3.90 71.55-3.90L71.55-3.90L72.06-3.90L72.06-3.90Q74.43-3.90 76.90-5.38L76.90-5.38L76.90-5.38Q79.36-6.85 81.28-9.86L81.28-9.86L81.28-9.86Q85.76-16.83 85.76-28.93ZM143.49 1.28L143.49 1.28L143.49 1.28Q135.30 1.28 134.53-10.37L134.53-10.37L123.52-10.37L123.52-10.37Q122.24-7.42 121.34-4.86L121.34-4.86L119.68 0L110.72 0L130.88-42.24L144.64-42.24L147.33-11.14L147.33-11.14Q147.97-4.42 150.53-2.43L150.53-2.43L150.53-2.43Q148.67 1.28 143.49 1.28ZM129.02-23.17L125.50-15.04L134.34-15.04L133.57-31.49L133.57-33.22L129.02-23.17ZM159.68 0L152.32 0L163.90-42.24L177.28-42.24L180.22-18.11L192.13-42.24L203.33-42.24L204.48-10.62L204.48-10.62Q204.74-4.35 207.81-2.43L207.81-2.43L207.81-2.43Q207.10-1.15 205.06 0.06L205.06 0.06L205.06 0.06Q203.01 1.28 200.29 1.28L200.29 1.28L200.29 1.28Q197.57 1.28 195.97 0.51L195.97 0.51L195.97 0.51Q194.37-0.26 193.47-1.54L193.47-1.54L193.47-1.54Q191.87-3.84 191.87-8.26L191.87-8.26L191.87-28.03L179.26 0L171.33 0L166.85-28.74L159.68 0ZM238.66 1.28L238.66 1.28L238.66 1.28Q230.46 1.28 229.70-10.37L229.70-10.37L218.69-10.37L218.69-10.37Q217.41-7.42 216.51-4.86L216.51-4.86L214.85 0L205.89 0L226.05-42.24L239.81-42.24L242.50-11.14L242.50-11.14Q243.14-4.42 245.70-2.43L245.70-2.43L245.70-2.43Q243.84 1.28 238.66 1.28ZM224.19-23.17L220.67-15.04L229.50-15.04L228.74-31.49L228.74-33.22L224.19-23.17ZM256 0L248.96 0L256.64-42.24L270.40-42.24L280.38-13.18L285.70-42.24L292.80-42.18L284.99 0L270.34 0L261.12-27.97L256 0ZM295.62-9.47L295.62-9.47L295.62-9.47Q295.62-11.97 296.26-15.17L296.26-15.17L301.44-42.24L315.58-42.24L310.46-14.98L310.46-14.98Q309.89-11.97 309.89-9.76L309.89-9.76L309.89-9.76Q309.89-7.55 310.82-6.40L310.82-6.40L310.82-6.40Q311.74-5.25 313.47-5.25L313.47-5.25L313.47-5.25Q315.20-5.25 316.29-5.70L316.29-5.70L316.29-5.70Q317.38-6.14 318.27-7.23L318.27-7.23L318.27-7.23Q320-9.41 321.09-14.98L321.09-14.98L326.27-42.24L335.94-42.24L330.82-15.04L330.82-15.04Q329.02-5.95 324.10-2.30L324.10-2.30L324.10-2.30Q319.30 1.28 309.82 1.28L309.82 1.28L309.82 1.28Q302.72 1.28 298.94-1.79L298.94-1.79L298.94-1.79Q295.62-4.48 295.62-9.47ZM363.97-9.86L363.97-9.86L363.97-9.86Q365.18-8.32 365.18-5.34L365.18-5.34L365.18-5.34Q365.18-2.37 362.91-0.54L362.91-0.54L362.91-0.54Q360.64 1.28 356.67 1.28L356.67 1.28L356.67 1.28Q354.37 1.28 350.78 0.77L350.78 0.77L350.78 0.77Q343.74-0.32 341.73-0.32L341.73-0.32L341.73-0.32Q339.71-0.32 338.88-0.22L338.88-0.22L338.88-0.22Q338.05-0.13 336.70 0L336.70 0L344.45-42.24L358.46-42.24L352.06-7.04L352.06-7.04Q352.90-6.91 353.66-6.91L353.66-6.91L355.26-6.91L355.26-6.91Q360.64-6.91 363.97-9.86ZM396.22-9.86L396.22-9.86L396.22-9.86Q397.44-8.32 397.44-5.34L397.44-5.34L397.44-5.34Q397.44-2.37 395.17-0.54L395.17-0.54L395.17-0.54Q392.90 1.28 388.93 1.28L388.93 1.28L388.93 1.28Q386.62 1.28 383.04 0.77L383.04 0.77L383.04 0.77Q376-0.32 373.98-0.32L373.98-0.32L373.98-0.32Q371.97-0.32 371.14-0.22L371.14-0.22L371.14-0.22Q370.30-0.13 368.96 0L368.96 0L376.70-42.24L390.72-42.24L384.32-7.04L384.32-7.04Q385.15-6.91 385.92-6.91L385.92-6.91L387.52-6.91L387.52-6.91Q392.90-6.91 396.22-9.86ZM429.82 1.28L429.82 1.28L429.82 1.28Q421.63 1.28 420.86-10.37L420.86-10.37L409.86-10.37L409.86-10.37Q408.58-7.42 407.68-4.86L407.68-4.86L406.02 0L397.06 0L417.22-42.24L430.98-42.24L433.66-11.14L433.66-11.14Q434.30-4.42 436.86-2.43L436.86-2.43L436.86-2.43Q435.01 1.28 429.82 1.28ZM415.36-23.17L411.84-15.04L420.67-15.04L419.90-31.49L419.90-33.22L415.36-23.17ZM464.45-4.80L464.45-4.80L464.45-4.80Q464.45-9.28 466.24-18.24L466.24-18.24L456.77-18.24L453.25 0L439.87 0L448-42.24L461.50-42.24L457.79-23.36L467.26-23.36L470.78-42.24L484.29-42.24L484.29-42.24Q483.39-37.50 482.24-32.19L482.24-32.19L480.06-21.76L480.06-21.76Q477.63-9.60 477.63-4.29L477.63-4.29L477.63-4.29Q477.63-2.11 478.34-0.90L478.34-0.90L478.34-0.90Q475.14 1.28 471.39 1.28L471.39 1.28L471.39 1.28Q467.65 1.28 466.05-0.51L466.05-0.51L466.05-0.51Q464.45-2.30 464.45-4.80Z" fill="#444"></path></g></g><style>text {
  font-size: 64px;
  font-family: Arial Black;
  dominant-baseline: central;
  text-anchor: middle;
}</style></svg>